# xmcd CD Database Entry
#
# Track frame offsets:
# 150
# 22261
# 35559
# 54126
# 76521
# 90909
# 106503
# 130769
# 159839
# 189411
# 207910
# 228984
# 248906
# 273660
# 292034
#
# Disc length: 4218 seconds
#
# Revision: 2
# Processed by: cddbd v1.4b41PL3 Copyright (c) Steve Scherf et al.
# Submitted via: tcd 2.0b
#
DISCID=b810780f
DTITLE=Attica - Las Fiestas Secretas
DYEAR=1900
DGENRE=
TTITLE0=And One - Metalhammer
TTITLE1=Espiral - Dunne (drum mix)
TTITLE2=Megabeat - No Puede Ser (Es Imposible)
TTITLE3=DJ Silvan - Guitar Spell
TTITLE4=Zentral - Que Idea
TTITLE5=Piropo - The Dream (Is Just In My Mind)
TTITLE6=Metro - Welcome to the Metro Station
TTITLE7=The Age Of Love - The Age Of Love
TTITLE8=Invisible Limits - Golden Dreams
TTITLE9=Nacho Division - Controla
TTITLE10=Control - Representative
TTITLE11=Clinical Death- Helloween Dreams (Mayoya Mix)
TTITLE12=Virtual Reality - In Control
TTITLE13=World Vol. 4 - Tracy
TTITLE14=DJ Rave Ministry - Rave
EXTD=
EXTT0=
EXTT1=
EXTT2=
EXTT3=
EXTT4=
EXTT5=
EXTT6=
EXTT7=
EXTT8=
EXTT9=
EXTT10=
EXTT11=
EXTT12=
EXTT13=
EXTT14=
PLAYORDER=
